<svg xmlns="http://www.w3.org/2000/svg" xml:space="preserve" id="Layer_1" x="0" y="0" style="enable-background:new 0 0 546.3 98.4" version="1.1" viewBox="0 0 546.3 98.4"><style>.st0{fill:#fff}</style><path d="M200.8 57.7h-5.5V13.6h5.5v44.1zm36.3 0h-4.8v-21c0-3-.7-5.1-2-6.4-1.3-1.2-2.9-1.8-4.8-1.8-2.6 0-4.8 1-6.5 3.1s-2.6 4.8-2.6 8.2v17.9h-5.1V25h4.7v6c2.6-4.6 6.1-6.9 10.3-6.9 2.4 0 4.5.6 6.2 1.9 1.7 1.3 2.9 2.7 3.5 4.3s1 4.4 1 8.5v18.9zm25-3.5v4c-1.8.2-3.3.4-4.7.4-6.3 0-9.5-3.3-9.5-9.9V29h-5.8v-4h5.8l.2-8.2 4.7-.5V25h7.3v4h-7.3v20.5c0 3.4 1.7 5.1 5.2 5.1 1.3 0 2.6-.1 4.1-.4zm26-6.2 4.7 1c-.9 2.8-2.5 5.1-5 6.9-2.5 1.8-5.4 2.7-8.8 2.7-4.5 0-8.1-1.6-10.8-4.7-2.8-3.1-4.1-7.3-4.1-12.4 0-5.2 1.4-9.4 4.3-12.6 2.9-3.2 6.5-4.8 10.8-4.8 4.3 0 7.7 1.5 10.3 4.4 2.6 3 3.9 7.4 4 13.3h-23.8c0 4.9 1 8.3 3.1 10 2.1 1.7 4.3 2.6 6.6 2.6 4.1 0 7-2.1 8.7-6.4zm-.3-10c0-1.8-.3-3.5-.9-4.9-.6-1.4-1.5-2.6-2.8-3.6-1.3-1-2.9-1.5-4.8-1.5-2.5 0-4.7.9-6.4 2.7-1.8 1.8-2.7 4.3-3 7.3h17.9zm18.3 19.7H301V25h4.5v7.6c1.6-3.6 3.2-5.9 4.7-7 1.6-1.1 3.2-1.6 4.9-1.6.5 0 1.2 0 2 .1V29h-1c-2.8 0-5.1 1-7 3.1-1.9 2.1-2.8 4.8-3 8.2v17.4zm42.5 0h-4.8v-21c0-3-.7-5.1-2-6.4-1.3-1.2-2.9-1.8-4.8-1.8-2.6 0-4.8 1-6.5 3.1-1.8 2.1-2.6 4.8-2.6 8.2v17.9h-5.1V25h4.7v6c2.6-4.6 6.1-6.9 10.3-6.9 2.4 0 4.5.6 6.2 1.9 1.7 1.3 2.9 2.7 3.5 4.3s1 4.4 1 8.5v18.9zm35.7 0h-5c-.2-1-.4-3-.6-5.9-2.2 4.5-6.1 6.8-11.5 6.8-3.7 0-6.5-1-8.4-2.9-2-1.9-2.9-4.3-2.9-7 0-3.3 1.4-6 4.2-8.1 2.8-2.1 7.6-3.2 14.3-3.2.9 0 2.3 0 4.3.1 0-2.6-.2-4.5-.6-5.6-.4-1.2-1.2-2.1-2.5-2.8-1.3-.7-3-1-5.1-1-5.2 0-8.2 2-9 5.9l-4.7-.8c1.1-6 6-9 14.4-9 4.5 0 7.7 1 9.6 3s2.8 5.5 2.8 10.4v13.9c.1 2.2.3 4.3.7 6.2zm-5.6-16.3c-2.1-.1-3.6-.2-4.7-.2-4 0-7.1.7-9.3 2-2.2 1.3-3.3 3.2-3.3 5.8 0 1.6.6 3 1.8 4.1 1.2 1.1 2.9 1.7 5.2 1.7 3.1 0 5.6-1.1 7.6-3.3 2-2.2 3-4.8 3-7.8-.2-.8-.2-1.5-.3-2.3zm29.9 12.8v4c-1.8.2-3.3.4-4.7.4-6.3 0-9.5-3.3-9.5-9.9V29h-5.8v-4h5.8l.2-8.2 4.7-.5V25h7.3v4h-7.3v20.5c0 3.4 1.7 5.1 5.2 5.1 1.4 0 2.7-.1 4.1-.4zm10.9-40.6v5.7H414v-5.7h5.5zm-.2 11.4v32.7h-5.1V25h5.1zm21.8 33.6c-4.5 0-8-1.7-10.5-5s-3.8-7.4-3.8-12.4c0-5.2 1.4-9.4 4.2-12.5 2.8-3.1 6.3-4.7 10.6-4.7 4.5 0 8.1 1.6 10.7 4.9 2.6 3.3 3.9 7.4 3.9 12.3 0 5.1-1.4 9.3-4.2 12.5-2.8 3.3-6.4 4.9-10.9 4.9zm.4-4.2c2.6 0 4.8-1.1 6.5-3.2 1.7-2.1 2.6-5.5 2.6-10s-.9-7.8-2.7-9.9c-1.8-2-4-3.1-6.4-3.1-2.5 0-4.7 1-6.4 3.1-1.8 2.1-2.6 5.3-2.6 9.8 0 4.7.9 8.1 2.6 10.1 1.7 2.2 3.8 3.2 6.4 3.2zm48.1 3.3h-4.8v-21c0-3-.7-5.1-2-6.4-1.3-1.2-2.9-1.8-4.8-1.8-2.6 0-4.8 1-6.5 3.1-1.8 2.1-2.6 4.8-2.6 8.2v17.9h-5.1V25h4.7v6c2.6-4.6 6.1-6.9 10.3-6.9 2.4 0 4.5.6 6.2 1.9 1.7 1.3 2.9 2.7 3.5 4.3s1 4.4 1 8.5v18.9zm35.7 0h-5c-.2-1-.4-3-.6-5.9-2.2 4.5-6.1 6.8-11.5 6.8-3.7 0-6.5-1-8.4-2.9-2-1.9-2.9-4.3-2.9-7 0-3.3 1.4-6 4.2-8.1 2.8-2.1 7.6-3.2 14.3-3.2.9 0 2.3 0 4.3.1 0-2.6-.2-4.5-.6-5.6-.4-1.2-1.2-2.1-2.5-2.8-1.3-.7-3-1-5.1-1-5.2 0-8.2 2-9 5.9l-4.7-.8c1.1-6 6-9 14.4-9 4.5 0 7.7 1 9.6 3s2.8 5.5 2.8 10.4v13.9c0 2.2.3 4.3.7 6.2zm-5.6-16.3c-2.1-.1-3.6-.2-4.7-.2-4 0-7.1.7-9.3 2-2.2 1.3-3.3 3.2-3.3 5.8 0 1.6.6 3 1.8 4.1 1.2 1.1 2.9 1.7 5.2 1.7 3.1 0 5.6-1.1 7.6-3.3 2-2.2 3-4.8 3-7.8-.2-.8-.2-1.5-.3-2.3zm20.2 16.3h-5.1V13.6h5.1v44.1zM164.9 11h2.5v71.5h-2.5z" class="st0"/><path d="M67.2 51s.1 0 0 0c.1-.1 0-.1 0 0z" style="fill:#281e23"/><path d="M60 67.4c-4 3.7-9.2 6-15.1 6-12.3 0-22.3-10-22.3-22.3s10-22.3 22.3-22.3c5.1 0 9.7 1.8 13.4 4.6 5.3 4 8.7 10.2 8.8 17.3v.3-.1.1h15.2l-.1-2.5c-.1-.9-.2-1.7-.3-2.5-1-7.6-4.3-14.4-9.2-19.8C66 18.4 56 13.6 44.9 13.6 24.2 13.6 7.4 30.3 7.4 51s16.8 37.5 37.5 37.5c8.5 0 16.3-2.9 22.6-7.7-3.1-4-5.7-8.5-7.5-13.4z" style="fill:#3fa9f4"/><path d="M108.3 13.7c-6.1-.6-12 .4-17.3 2.5v26.4c0 15.4 6.8 21 15.2 21V28.8c13.4.9 23.6 13.6 20.1 27.9-1.9 7.7-8.1 14-15.8 15.9-10.3 2.6-19.8-2-24.7-9.7-2.2-3.4-3.5-7.5-3.5-11.8h-15V51v.1c0 4.2.7 8.2 2 12 5 14.8 19 25.5 35.5 25.5 21 0 37.9-17.2 37.5-38.2-.5-19-15.3-34.9-34-36.7zm102.8 57.4-3.3 13.5h-1.7l-2.9-10.5-2.7 10.5h-1.7l-3.4-13.5h1.8l2.7 10.9 2.9-10.9h1.4l3.1 10.9 2.5-10.9h1.3zm12.8 12v1.5h-8.7V71.1h8.6v1.5h-6.9v4.3h5.4v1.4h-5.4v4.9h7zm4.4 1.5V71.1h5.3c1.3 0 2.3.3 3 1 .6.7 1 1.4 1 2.3 0 1.5-.8 2.5-2.4 3 1 .2 1.7.7 2.1 1.3.5.6.7 1.3.7 2.1 0 1.1-.4 2-1.1 2.7-.7.7-1.8 1.1-3.3 1.1h-5.3zm1.6-7.7h2.9c1.2 0 2-.2 2.4-.7.4-.5.6-1 .6-1.6 0-.6-.2-1.1-.7-1.5-.4-.4-1.1-.6-2-.6h-3.4v4.4zm0 6.2h3.6c.9 0 1.6-.2 2-.6.5-.4.7-1 .7-1.7 0-.5-.1-.9-.3-1.3-.2-.4-.5-.7-.9-1-.4-.2-1-.3-1.8-.3h-3.4v4.9zm30.9.1v1.4c-.6.1-1.1.1-1.5.1-.3 0-.6-.1-.9-.1-.3-.1-.8-.5-1.4-1.1-1.1.9-2.3 1.3-3.6 1.3-1.4 0-2.5-.4-3.3-1.2-.8-.8-1.3-1.7-1.3-2.8 0-.9.3-1.7.9-2.4.6-.7 1.5-1.3 2.6-1.7-.9-1.3-1.3-2.3-1.3-3.1 0-.8.3-1.4.8-2 .5-.6 1.3-.8 2.2-.8.9 0 1.7.3 2.3.8.6.5.9 1.2.9 2.1 0 1.4-.9 2.6-2.8 3.5l2.8 4.3c.9-1.2 1.5-2.6 1.8-4.3l1.4.3c-.4 1.9-1.2 3.6-2.5 5.1.4.5.9.7 1.4.7.4 0 .8-.1 1.5-.1zm-7.8-5.4c-.9.4-1.6.8-1.9 1.3s-.5 1-.5 1.7c0 1 .3 1.7.9 2.1.6.5 1.3.7 2.1.7 1 0 1.9-.4 2.7-1.1l-3.3-4.7zm.7-1.6c1.1-.6 1.7-1.1 1.9-1.4.2-.4.3-.7.3-1 0-.5-.2-.9-.5-1.2-.3-.3-.8-.5-1.3-.5s-.9.1-1.2.5c-.3.3-.5.6-.5 1 .1.5.5 1.4 1.3 2.6zm17.1 4.8 1.5-.3c.6 1.8 1.9 2.8 4 2.8 1.1 0 1.9-.2 2.4-.7.5-.5.8-1.1.8-1.8 0-.6-.2-1-.6-1.4-.4-.3-.9-.6-1.4-.7l-2.7-.7c-.7-.2-1.3-.4-1.7-.6-.4-.3-.8-.6-1.1-1.2-.3-.5-.5-1.1-.5-1.8 0-1.1.4-2 1.3-2.7.9-.7 1.9-1 3.3-1 2.5 0 4.1 1.1 4.8 3.3l-1.5.5c-.2-.8-.6-1.4-1.3-1.8-.7-.4-1.4-.6-2.1-.6-.7 0-1.4.2-2 .6-.6.4-.9.9-.9 1.7 0 1 .7 1.7 2.2 2l2.5.6c2.3.6 3.5 1.8 3.5 3.7 0 1.2-.4 2.1-1.3 2.9-.9.8-2.1 1.2-3.7 1.2-2.7-.1-4.6-1.4-5.5-4zm19.7 3.9c-1.7 0-3.1-.7-4.1-2-1-1.4-1.5-3-1.5-5s.5-3.7 1.5-5.1c1-1.3 2.4-2 4-2 1.7 0 3 .7 4 2s1.5 3 1.5 5c0 1.9-.5 3.6-1.5 5-.7 1.4-2.1 2.1-3.9 2.1zm.1-1.4c1.2 0 2.1-.5 2.8-1.6.7-1.1 1-2.5 1-4.2 0-1.7-.3-3.1-1-4.1-.7-1-1.6-1.5-2.7-1.5-1.2 0-2.1.5-2.8 1.6-.7 1-1 2.4-1 4.1 0 1.7.3 3 1 4 .6 1.2 1.5 1.7 2.7 1.7zm11.8 1.1h-1.7V71.1h8.3v1.5h-6.6v4.3h5.5v1.4h-5.5v6.3zm14.7 0h-1.7v-12h-3.9v-1.5h9.4v1.5H317v12zm22.8-13.5-3.3 13.5H335l-3-10.5-2.7 10.5h-1.7l-3.4-13.5h1.8l2.7 10.9 2.9-10.9h1.4l3.1 10.9 2.5-10.9h1.3zm12.7 13.5h-1.7l-1.4-3.9h-5l-1.2 3.9h-1.4l4.4-13.5h1.9l4.4 13.5zm-3.5-5.2-2.1-6.5-2.1 6.5h4.2zm17 5.2h-1.8l-2.5-5.9h-3.9v5.9h-1.6V71.1h5.3c1.4 0 2.5.4 3.2 1.2.7.8 1 1.7 1 2.6 0 .7-.2 1.4-.6 2.1-.4.7-1 1.1-1.9 1.4l2.8 6.2zm-8.2-7.2h3.5c.9 0 1.6-.2 2.1-.7.5-.5.7-1.1.7-1.8s-.2-1.3-.7-1.7c-.5-.4-1.1-.6-1.8-.6H358v4.8zm21.6 5.7v1.5h-8.7V71.1h8.6v1.5h-6.9v4.3h5.4v1.4h-5.4v4.9h7zm11.5 1.5V71.1h4.5c1.9 0 3.4.6 4.5 1.9 1.1 1.3 1.6 2.9 1.6 4.8s-.5 3.5-1.6 4.8c-1 1.3-2.4 2-3.9 2H391zm1.7-1.4h2.7c1.4 0 2.6-.5 3.3-1.5.8-1 1.1-2.3 1.1-4 0-1.3-.4-2.5-1.1-3.6-.7-1.1-1.8-1.6-3.4-1.6h-2.7v10.7zm22.2-.1v1.5h-8.7V71.1h8.6v1.5h-6.9v4.3h5.4v1.4h-5.4v4.9h7zm13.5-12-4.6 13.5h-1.6l-4.6-13.5h1.8l3.8 11.1 3.7-11.1h1.5zm12.5 12v1.5h-8.7V71.1h8.6v1.5h-6.9v4.3h5.4v1.4h-5.4v4.9h7zm12.4 0v1.5h-8V71.1h1.7v12h6.3zm8.2 1.8c-1.7 0-3.1-.7-4.1-2-1-1.4-1.5-3-1.5-5s.5-3.7 1.5-5.1c1-1.3 2.4-2 4-2 1.7 0 3 .7 4 2s1.5 3 1.5 5c0 1.9-.5 3.6-1.5 5-.8 1.4-2.2 2.1-3.9 2.1zm0-1.4c1.2 0 2.1-.5 2.8-1.6.7-1.1 1-2.5 1-4.2 0-1.7-.3-3.1-1-4.1-.7-1-1.6-1.5-2.7-1.5-1.2 0-2.1.5-2.7 1.6-.7 1-1 2.4-1 4.1 0 1.7.3 3 1 4s1.5 1.7 2.6 1.7zm11.8 1.1h-1.7V71.1h4.8c1.5 0 2.6.4 3.3 1.2.7.8 1.1 1.7 1.1 2.8 0 1.2-.4 2.1-1.2 2.9-.8.8-1.8 1.1-3 1.1h-3.3v5.5zm0-6.9h3.1c.8 0 1.4-.2 1.9-.7.5-.5.7-1.1.7-1.9 0-.7-.2-1.3-.7-1.8-.4-.5-1.1-.8-1.9-.8h-3.2v5.2zm24.7 6.9h-1.6V72.8L492 84.6h-1.1l-4.4-11.8v11.8H485V71.1h2.5l4.1 10.8 4-10.8h2.5v13.5zm14.2-1.5v1.5h-8.7V71.1h8.6v1.5h-6.9v4.3h5.4v1.4h-5.4v4.9h7zm14.3 1.5h-1.6l-7-11.8v11.8h-1.4V71.1h2.1l6.5 11v-11h1.3v13.5zm9.5 0h-1.7v-12h-3.9v-1.5h9.4v1.5H536v12z" class="st0"/></svg>